<?xml version="1.0" encoding="utf-8" ?>
<svg baseProfile="full" height="200mm" version="1.1" viewBox="0,0,200,200" width="200mm" xmlns="http://www.w3.org/2000/svg" xmlns:ev="http://www.w3.org/2001/xml-events" xmlns:xlink="http://www.w3.org/1999/xlink"><defs /><rect fill="#1a1a1a" height="200" width="200" x="0" y="0" /><text alignment-baseline="middle" fill="#e1ed5e" style="dominant-baseline: central; font-size:9.0px; font-family:Arial;" text-anchor="middle" x="100.0" y="100.0">2024</text><line stroke="#e1ed5e" stroke-width="0.3" x1="100.0" x2="100.0" y1="15.0" y2="10.0" /><path d="M 100.0 14.0 a86.0,86.0 0 0,1 42.35913384403234,11.155469271406648" fill="none" id="id37" stroke="none" /><text fill="#e1ed5e" style="font-size:6.75px; font-family:Arial;" text-anchor="middle"><textPath startOffset="22.145653131862478" xlink:href="#id37">January</textPath></text><path d="M 100.0 79.0 l 0.0 -39.97951413097592 a60.97951413097592,60.97951413097592 0 0,0 1.0467944478541704,0.008985471353543334 l -0.6863015230053158 39.973623057816816" fill="#30ff33" stroke="none" /><path d="M 100.36049292484886 79.00309439819443 l 0.13365982787330538 -7.78501489255591 a28.786162201425324,28.786162201425324 0 0,0 0.4940071236377983,0.012723871141003705 l -0.26728026558184503 7.781573304064862" fill="#ff4e07" stroke="none" /><path d="M 100.72087961077811 79.0123766808444 l 0.26391101087891705 -7.683481129568459 a28.688012180667883,28.688012180667883 0 0,0 0.4920325222402857,0.021129993590638548 l -0.395769293720039 7.67781856755199" fill="#ff4d07" stroke="none" /><path d="M 101.08105385017728 79.02784411241856 l 0.7496728691948207 -14.543453385662527 a35.56276229950024,35.56276229950024 0 0,0 0.6094028984402811,0.03666016508927608 l -0.9992201197675642 14.528441242748558" fill="#ffab0f" stroke="none" /><path d="M 101.44090949804482 79.04949213459386 l 0.48669854688247977 -7.076490056022933 a28.093207101764968,28.093207101764968 0 0,0 0.48083665088452054,0.037219797801977074 l -0.6081041925422338 7.067092491225902" fill="#ff4406" stroke="none" /><path d="M 101.80034050326958 79.07731436759882 l 0.5103674519197299 -5.931243414306045 a26.953160788667468,26.953160788667468 0 0,0 0.4606429131050811,0.043623362799682174 l -0.6121099284098239 5.921608296001179" fill="#ff3404" stroke="none" /><path d="M 102.15924093988457 79.11130261209362 l 0.25100389867308587 -2.4282350272809756 a23.441173550746306,23.441173550746306 0 0,0 0.39991099559892274,0.044810861191372384 l -0.2926507958728053 2.4235684055826323" fill="#ff0000" stroke="none" /><path d="M 102.51750503828377 79.15144685158666 l 0.9623310607472563 -7.9694816738224326 a29.027373120758156,29.027373120758156 0 0,0 0.49418712680581633,0.0639824175359712 l -1.0989960094438642 7.951787660086064" fill="#ff5107" stroke="none" /><path d="M 102.87502721639298 79.19773525538626 l 2.334716307718732 -16.89284416502497 a38.05341854940956,38.05341854940956 0 0,0 0.646319002017968,0.09498663607944989 l -2.624360415344382 16.85027645564664" fill="#ffcc13" stroke="none" /><path d="M 103.23170211078529 79.25015418208739 l 6.294805636448931 -40.41716777487982 a61.90442554227419,61.90442554227419 0 0,0 1.0486093726649073,0.17254827322934585 l -6.987692512166909 40.30315350315481" fill="#31ff3f" stroke="none" /><path d="M 103.58742460773223 79.30868818359171 l 1.4559302035374613 -8.397418515608564 a29.522697371364195,29.522697371364195 0 0,0 0.49860358711935665,0.09086218293252049 l -1.5998685242078714 8.371188158744678" fill="#ff5908" stroke="none" /><path d="M 103.94208987418118 79.37332000966035 l 8.748631188014835 -45.77653519534992 a67.60503966477248,67.60503966477248 0 0,0 1.1380294817769585,0.2276377687298762 l -9.533157155322751 45.619608029957185" fill="#38ff82" stroke="none" /><path d="M 104.29559338865022 79.4440306129975 l 6.3302269115987855 -30.292427339937852 a51.946775710851426,51.946775710851426 0 0,0 0.8713146067056271,0.18989896314175328 l -6.849303934923547 30.17929691866238" fill="#8bff24" stroke="none" /><path d="M 104.64783097203109 79.52079915486377 l 13.943492916093248 -61.4376025354087 a84.0,84.0 0 0,0 1.40347138504046,0.3312154254150901 l -14.996096454873593 61.18919096634738" fill="#4dd2ff" stroke="none" /><path d="M 104.9986988182912 79.60360301121754 l 3.7069757114360744 -15.125725911222501 a36.573350739857005,36.573350739857005 0 0,0 0.6085016741674829,0.1546787460460877 l -3.966082678828952 15.059861933341146" fill="#ffb911" stroke="none" /><path d="M 105.3480935250658 79.69241777938227 l 4.26038470404817 -16.177374659478456 a37.728966755290756,37.728966755290756 0 0,0 0.6248969695717514,0.17031844785017408 l -4.537463074554615 16.101855717484142" fill="#ffc812" stroke="none" /><path d="M 105.69591212413111 79.78721728523813 l 2.137232682102553 -7.5842848121215605 a28.8796662143028,28.8796662143028 0 0,0 0.4760193955162937,0.13856230845379025 l -2.2671120900004516 7.546478809365254" fill="#ff4f07" stroke="none" /><path d="M 106.04205211174951 79.88797359093562 l 2.240344156872098 -7.457377065779394 a28.786630506351475,28.786630506351475 0 0,0 0.4720450410916866,0.14624076037937397 l -2.3680298308354146 7.417819717593373" fill="#ff4e07" stroke="none" /><path d="M 106.38641147887787 79.99465700312896 l 8.114862832092225 -25.41969224273806 a47.683548349108094,47.683548349108094 0 0,0 0.7776443379925739,0.25562713987736885 l -8.550029907732542 25.276644181458668" fill="#bbff1f" stroke="none" /><path d="M 106.72888874123014 80.10723608172694 l 5.0962859195382615 -15.066263770451377 a36.90485567914716,36.90485567914716 0 0,0 0.5983757305838683,0.20814614059372125 l -5.354167422167148 14.976559197289065" fill="#ffbd11" stroke="none" /><path d="M 107.40779381753099 80.34994680014964 l 6.479700320242755 -17.188174934152713 a39.36899218267539,39.36899218267539 0 0,0 0.6303308175948101,0.24382550129387903 l -6.773803400331092 17.074409544720794" fill="#ffdd14" stroke="none" /><path d="M 107.74402155503746 80.48000691201159 l 2.8400859995563974 -7.158872000371816 a28.701658055417926,28.701658055417926 0 0,0 0.45641860304972837,0.18562147243949167 l -2.9625590637965655 7.109063271353031" fill="#ff4d07" stroke="none" /><path d="M 108.07796709384702 80.6158196554323 l 3.1059041821750935 -7.453039372503438 a29.074307194858218,29.074307194858218 0 0,0 0.45904859426357103,0.19594054817440432 l -3.2333878516090944 7.398624174669632" fill="#ff5207" stroke="none" /><path d="M 108.4095320186766 80.7573450057729 l 3.0426022579690906 -6.9620693999057055 a28.59788383889238,28.59788383889238 0 0,0 0.44815144181290567,0.20045243966670015 l -3.161667102637628 6.9088132093291525" fill="#ff4b07" stroke="none" /><path d="M 108.73861861582097 80.90454125486305 l 16.786038905464512 -36.68052440613899 a61.33896345774302,61.33896345774302 0 0,0 0.9537078023036394,0.44638340700807727 l -17.413235421639655 36.386964767560386" fill="#30ff38" stroke="none" /><path d="M 109.3889696526874 81.21577127319529 l 17.011902138278284 -34.035200098018365 a59.049962681644075,59.049962681644075 0 0,0 0.9028255036145215,0.46098913503197364 l -17.593654863606385 33.73815301131356" fill="#40ff2d" stroke="none" /><path d="M 109.71004243097381 81.37971332152246 l 3.572280376096748 -6.8503186439886745 a28.725804334153484,28.725804334153484 0 0,0 0.4352796292692648,0.23176188536326217 l -3.6893488211525725 6.787986290902839" fill="#ff4d07" stroke="none" /><path d="M 110.02825361518725 81.54914285379988 l 8.12699381429326 -14.952753255909451 a38.0186033031407,38.0186033031407 0 0,0 0.5707421737858471,0.3165810628059037 l -8.382480176235207 14.811039277670401" fill="#ffcc13" stroke="none" /><path d="M 110.34350942703115 81.72400993836675 l 15.985105911714902 -28.244150482735062 a53.45390034341213,53.45390034341213 0 0,0 0.7947004909263313,0.4588205423614452 l -16.46759887050163 27.965583043097446" fill="#7aff26" stroke="none" /><line stroke="#e1ed5e" stroke-width="0.3" x1="143.13028292997686" x2="145.6673583964461" y1="26.7553504044142" y2="22.446841604673864" /><path d="M 143.63769802327073 25.89364864446614 a86.0,86.0 0 0,1 29.32050498858742,28.57503671076993" fill="none" id="id38" stroke="none" /><text fill="#e1ed5e" style="font-size:6.75px; font-family:Arial;" text-anchor="middle"><textPath startOffset="20.669276256404974" xlink:href="#id38">February</textPath></text><path d="M 110.65571695917076 81.90426304109057 l 12.709011338666478 -21.582679708320946 a46.04657726313761,46.04657726313761 0 0,0 0.6776899383182411,0.40693333634663453 l -13.077634033542154 21.36133237143839" fill="#cfff1d" stroke="none" /><path d="M 110.96478420261332 82.08984904055464 l 16.985760898656103 -27.744963898465826 a53.53150926461124,53.53150926461124 0 0,0 0.7796121796735215,0.4865356599837836 l -17.45953720711934 27.449292441640498" fill="#79ff26" stroke="none" /><path d="M 111.27062007382361 82.28071324371311 l 13.209992523777728 -20.768302368816677 a45.61353866799449,45.61353866799449 0 0,0 0.6570833719366144,0.4259135030332328 l -13.56456152797135 20.53847502407955" fill="#d4ff1c" stroke="none" /><path d="M 111.5731344415666 82.4767994020092 l 13.338961683120981 -20.196888105155494 a45.20417707578469,45.20417707578469 0 0,0 0.6438446265184599,0.4332073985943517 l -13.683702597736442 19.964931032504023" fill="#d9ff1c" stroke="none" /><path d="M 111.8722381534696 82.67804972795209 l 3.9982543444994296 -5.83357257790339 a28.072241994231742,28.072241994231742 0 0,0 0.3951567873929968,0.27585012702298806 l -4.09780622306619 5.764077635075275" fill="#ff4406" stroke="none" /><path d="M 112.45986205192187 83.09580414077388 l 13.041638720431903 -17.693487643504312 a42.9805333307704,42.9805333307704 0 0,0 0.5901575390928014,0.4428652195630252 l -13.343449248435471 17.46700339667727" fill="#f4ff19" stroke="none" /><path d="M 112.7482090630111 83.31218511350987 l 9.44579606768177 -12.36485026672271 a36.5599673994101,36.5599673994101 0 0,0 0.4954572926824977,0.3852705875365536 l -9.656663304999492 12.200878627565366" fill="#ffb911" stroke="none" /><path d="M 113.03279911837588 83.53348406188908 l 4.901230706946009 -6.192544887651314 a28.89744734887716,28.89744734887716 0 0,0 0.3863302896141291,0.31120033442684386 l -5.006811766915398 6.107496259431063" fill="#ff5007" stroke="none" /><path d="M 113.31354834802062 83.75963576809568 l 10.72533876105264 -13.083169372795565 a37.91751200314615,37.91751200314615 0 0,0 0.49983526224739805,0.4169803530239057 l -10.94834835746193 12.897126835859789" fill="#ffca12" stroke="none" /><path d="M 113.59037401385872 83.9905735841838 l 1.6915956531085037 -1.9926954259050496 a23.613872780767743,23.613872780767743 0 0,0 0.30677852651727094,0.2649879845723599 l -1.725553659388635 1.9633633088679696" fill="#ff0300" stroke="none" /><path d="M 113.86319453409587 84.22622945171908 l 5.609247364275547 -6.382293825209056 a29.496901227208294,29.496901227208294 0 0,0 0.37746899809939816,0.33753510568983003 l -5.717981389198321 6.285063189635841" fill="#ff5808" stroke="none" /><path d="M 114.13192950727249 84.46653392183569 l 6.408146712125146 -7.043675778701768 a30.522484589622096,30.522484589622096 0 0,0 0.384540034663919,0.3559245152355448 l -6.5281165181030305 6.932633517333846" fill="#ff6709" stroke="none" /><path d="M 114.39649973595853 84.71141617570332 l 22.289635898673424 -23.670820900913384 a53.513622231590084,53.513622231590084 0 0,0 0.6633842022806008,0.635507059427057 l -22.692692586819337 23.284701711180748" fill="#7aff26" stroke="none" /><path d="M 114.65682725009322 84.96080404539774 l 6.53924440561786 -6.709840836153549 a30.36929460754214,30.36929460754214 0 0,0 0.37022784759449273,0.3670635260309131 l -6.653464173342315 6.596597299893976" fill="#ff6409" stroke="none" /><path d="M 114.91283532996326 85.21462403516908 l 22.940682428170295 -22.744609397569462 a53.30467716783696,53.30467716783696 0 0,0 0.6386743017058448,0.6553360976852557 l -23.32774353102695 22.347450607816466" fill="#7cff26" stroke="none" /><path d="M 115.16444852881244 85.47280134310134 l 20.407981357116054 -19.550384492902257 a49.26133820067106,49.26133820067106 0 0,0 0.5797453504114751,0.6156694716823095 l -20.740582541263787 19.197173561275452" fill="#a9ff21" stroke="none" /><path d="M 115.41159269507618 85.73525988315684 l 5.7873074721852085 -5.356645396770812 a28.88584666883377,28.88584666883377 0 0,0 0.3337034673803841,0.3667985668943126 l -5.8784086404074705 5.2565092543188285" fill="#ff4f07" stroke="none" /><path d="M 115.6541949942343 86.00192230759917 l 5.912754951407379 -5.28722193740481 a28.931922019962574,28.931922019962574 0 0,0 0.32787987329352364,0.3730671077298486 l -6.00264588865949 5.184942551863664" fill="#ff5007" stroke="none" /><path d="M 115.8921839302757 86.27271002978787 l 21.508061872068556 -18.57815158133689 a49.42084519629667,49.42084519629667 0 0,0 0.549054850493777,0.646785233302896 l -21.823811286069446 18.20619956558444" fill="#a7ff21" stroke="none" /><path d="M 116.1254893667686 86.54754324733833 l 27.310257996750448 -22.783188543873614 a56.56576826211921,56.56576826211921 0 0,0 0.6156326789770493,0.7509717678785958 l -27.697337494966124 22.311014494296522" fill="#59ff2a" stroke="none" /><path d="M 116.35404254752997 86.82634096563983 l 12.121068708025232 -9.763874945751198 a36.56449679819224,36.56449679819224 0 0,0 0.3895573990692774,0.4921930478878357 l -12.286892537736069 9.554361953948684" fill="#ffb911" stroke="none" /><path d="M 116.57777611688842 87.10902102172516 l 25.23051579194774 -19.619401685229022 a52.96091127634023,52.96091127634023 0 0,0 0.551923367159098,0.7224854045893631 l -25.563591136461145 19.183395367398777" fill="#80ff26" stroke="none" /><path d="M 116.7966241395341 87.39550010848427 l 21.609816777743898 -16.216409378932674 a48.01770001892828,48.01770001892828 0 0,0 0.48908995515611675,0.6635444566148957 l -21.885008752483838 15.843058613048902" fill="#b7ff1f" stroke="none" /><path d="M 117.01052211995028 87.68569379921539 l 12.684407174194325 -9.182532600528695 a36.65928128365171,36.65928128365171 0 0,0 0.36464620756657357,0.5129205568380437 l -12.840168480290858 8.963434816981147" fill="#ffba11" stroke="none" /><path d="M 117.21940702142032 87.97951657250589 l 20.23980488874784 -14.128955714808354 a45.683538877673044,45.683538877673044 0 0,0 0.4433701943745655,0.6468903638712845 l -20.479364819937732 13.779430615867021" fill="#d3ff1c" stroke="none" /><path d="M 117.42321728460499 88.27688183743584 l 26.833950039380216 -18.0550791476357 a53.342646115358946,53.342646115358946 0 0,0 0.5046609593534372,0.7641210140066103 l -27.13993543765438 17.591778255290027" fill="#7bff26" stroke="none" /><path d="M 117.62189284568427 88.57770195909679 l 6.783278982875812 -4.39683948344845 a29.08362982840852,29.08362982840852 0 0,0 0.2679603730999335,0.4212782135480645 l -6.857757047601635 4.279747595221713" fill="#ff5207" stroke="none" /><path d="M 117.81537515405839 88.88188828441811 l 6.495100293271384 -4.053422958542056 a28.656145603401875,28.656145603401875 0 0,0 0.2568573627519385,0.41955719847507633 l -6.563725620478725 3.9413286439424247" fill="#ff4c07" stroke="none" /><line stroke="#e1ed5e" stroke-width="0.3" x1="172.87174338648825" x2="177.1583165268699" y1="56.24261187166439" y2="53.66864786411523" /><path d="M 173.72905801456457 55.72781907015455 a86.0,86.0 0 0,1 12.242430191666344,42.057860355516425" fill="none" id="id39" stroke="none" /><text fill="#e1ed5e" style="font-size:6.75px; font-family:Arial;" text-anchor="middle"><textPath startOffset="22.145653131862474" xlink:href="#id39">March</textPath></text><path d="M 118.00360718960297 89.18935116829356 l 2.796181009942127 -1.6790263556642957 a24.261557564013902,24.261557564013902 0 0,0 0.21133698626943495,0.3588964053637879 l -2.8245917063413293 1.6307787820069515" fill="#ff0c01" stroke="none" /><path d="M 118.18653347947321 89.5 l 18.029539148974116 -10.409359281025106 a41.81871856205021,41.81871856205021 0 0,0 0.353600434961018,0.6247780872368379 l -18.20557294895651 10.09832442368915" fill="#fffc17" stroke="none" /><path d="M 118.36410011445183 89.81374322990088 l 21.128104521920644 -11.719403422137146 a45.160737100924784,45.160737100924784 0 0,0 0.37022051936777106,0.6811640568305753 l -21.326170390903755 11.354984531831969" fill="#d9ff1c" stroke="none" /><path d="M 118.53625476483649 90.13048839642627 l 4.710640959373162 -2.508150982958999 a26.33675553135445,26.33675553135445 0 0,0 0.20905355411696583,0.40088775476361127 l -4.753002582465073 2.4269169850908896" fill="#ff2b04" stroke="none" /><path d="M 118.70294669586156 90.45014215332178 l 30.334540315250784 -15.48903242712418 a55.060159448629705,55.060159448629705 0 0,0 0.4226000608812255,0.8454832103203599 l -30.595960289343747 14.96601736064007" fill="#69ff28" stroke="none" /><path d="M 118.8641267826498 90.77261029715802 l 6.911668075512656 -3.380843203837314 a28.69423526771789,28.69423526771789 0 0,0 0.21263896117310105,0.4443336462792593 l -6.96868629464567 3.2616970554929514" fill="#ff4d07" stroke="none" /><path d="M 119.0197475246899 91.09779779509293 l 14.392501695755968 -6.736417513627146 a36.89098568309219,36.89098568309219 0 0,0 0.26353433139398624,0.5758700744703792 l -14.506020492005005 6.488358456942082" fill="#ffbd11" stroke="none" /><path d="M 119.16976305983485 91.42560881287824 l 31.516327706850007 -14.096852511769344 a55.52535536188062,55.52535536188062 0 0,0 0.3817133334868051,0.8734348078668615 l -31.75367492235378 13.553755634126633" fill="#64ff29" stroke="none" /><path d="M 119.4528033332814 92.08871423366111 l 17.176975232261373 -6.985726290218042 a39.54316181053178,39.54316181053178 0 0,0 0.2503295393867162,0.63099396661279 l -17.294363446614213 6.689831306391687" fill="#ffdf14" stroke="none" /><path d="M 119.58574465831526 92.42381321644754 l 7.767983099866802 -3.0048227383115487 a29.32889675338159,29.32889675338159 0 0,0 0.17760646402878139,0.4711222467536283 l -7.818420247710024 2.8710322113637625" fill="#ff5607" stroke="none" /><path d="M 119.71291397450082 92.76114493625339 l 8.487170662301416 -3.116606626760161 a30.041310895937336,30.041310895937336 0 0,0 0.17360992295180908,0.48561785303160987 l -8.539420755297169 2.9704538173476345" fill="#ff6008" stroke="none" /><path d="M 119.83427380445688 93.10060997987247 l 28.88296205202208 -10.046993507201908 a51.580509731400895,51.580509731400895 0 0,0 0.2837286112716809,0.8387932239544102 l -29.051176084866125 9.549698608773335" fill="#8fff24" stroke="none" /><path d="M 119.94978838288452 93.4421083053983 l 7.550005707828074 -2.4818368383315232 a28.947458730961483,28.947458730961483 0 0,0 0.15112680311881335,0.4734025582929903 l -7.591497226724144 2.3518652463471454" fill="#ff5007" stroke="none" /><path d="M 120.05942366710727 93.78553927170692 l 14.104091567359028 -4.3694836206748295 a35.76542535966349,35.76542535966349 0 0,0 0.17665340642570893,0.5880217365845013 l -14.177021293788364 4.126724280499604" fill="#ffae10" stroke="none" /><path d="M 120.16314734710363 94.1308016681162 l 23.99596361059656 -6.984875286123841 a45.99189373304428,45.99189373304428 0 0,0 0.21415032007441187,0.7599439376219539 l -24.112332422745553 6.571923424598873" fill="#cfff1d" stroke="none" /><path d="M 120.26092885502905 94.47779374421319 l 9.088520689020866 -2.4771167286489604 a30.4200485987129,30.4200485987129 0 0,0 0.1329943074187223,0.5050010475922975 l -9.129704477244319 2.3207351766838644" fill="#ff6509" stroke="none" /><path d="M 120.35273937422433 94.82641323984039 l 15.798038891880198 -4.015799708565421 a37.30045030447544,37.30045030447544 0 0,0 0.15242113822300934,0.6219302577908232 l -15.864647556619499 3.7440136261665025" fill="#ffc212" stroke="none" /><path d="M 120.43855184770803 95.1765574152323 l 29.86357810914618 -7.0477231194511205 a51.68393225532739,51.68393225532739 0 0,0 0.19637221076021466,0.86525219371402 l -29.980161181464062 6.534036591798075" fill="#8eff24" stroke="none" /><path d="M 120.51834098615036 95.52812308129327 l 14.721082802990674 -3.208391480066524 a36.06665373538103,36.06665373538103 0 0,0 0.12664940996913804,0.6060632743048467 l -14.773989923784178 2.955211754476273" fill="#ffb210" stroke="none" /><path d="M 120.592083275326 95.88100663000786 l 30.709793803648356 -6.142818838666075 a52.318136259159324,52.318136259159324 0 0,0 0.168598202930697,0.8821770405526599 l -30.81071829886121 5.614739233080101" fill="#87ff25" stroke="none" /><path d="M 120.65975698304385 96.23510406497455 l 54.1580846812598 -9.869407129647575 a76.05000756978373,76.05000756978373 0 0,0 0.22302636170962345,1.2863567873918498 l -54.31952586046166 8.938257309335132" fill="#43ffde" stroke="none" /><path d="M 120.7213421655516 96.59031103205396 l 32.37005892685831 -5.32648087816246 a53.80536714432122,53.80536714432122 0 0,0 0.14214483257713106,0.9126717929678552 l -32.45672525157371 4.7700209032631635" fill="#76ff27" stroke="none" /><path d="M 120.77682067341334 96.94652285012252 l 41.877243985700304 -6.154512743800505 a63.32707869616654,63.32707869616654 0 0,0 0.14883517067597143,1.0768971528540165 l -41.97672367293149 5.434727282746404" fill="#33ff50" stroke="none" /><path d="M 120.82617615685814 97.30363454192243 l 11.425956939057794 -1.4793188813882094 a32.52132268127382,32.52132268127382 0 0,0 0.0669287484933779,0.5542660486877108 l -11.449667773810836 1.2829591557770856" fill="#ff820c" stroke="none" /><path d="M 120.86939407059847 97.66154086499901 l 16.447601534983335 -1.8429880584086842 a37.55053477193481,37.55053477193481 0 0,0 0.0662813564299824,0.6412119978606361 l -16.476815283894982 1.5603715382651169" fill="#ffc612" stroke="none" /><path d="M 120.9064616781168 98.02013634271609 l 15.905116370386573 -1.506231056762751 a36.976278000582475,36.976278000582475 0 0,0 0.05441918091043945,0.6324333716283602 l -15.928629173994754 1.232976637758729" fill="#ffbe11" stroke="none" /><path d="M 120.93736805541906 98.37931529534042 l 16.06171075305024 -1.243277993644353 a37.10975767924924,37.10975767924924 0 0,0 0.043711828909947445,0.6355603989229136 l -16.08068654312525 0.9673741705671052" fill="#ffc011" stroke="none" /><path d="M 120.96210409425399 98.7389718711861 l 23.631327553469006 -1.4216019838537188 a44.674048959564146,44.674048959564146 0 0,0 0.03947996862994114,0.7659008442624767 l -23.65224911155552 1.0157293462145116" fill="#dfff1b" stroke="none" /><path d="M 120.98066250479742 99.09900007780936 l 32.26650373152106 -1.385662504452227 a53.296243181405906,53.296243181405906 0 0,0 0.03140750910771412,0.9143953590727517 l -32.285535927625624 0.8315608808153555" fill="#7cff26" stroke="none" /><path d="M 120.99303781780057 99.45929381324524 l 43.058008467140375 -1.1090215608424474 a64.07228832995463,64.07228832995463 0 0,0 0.018881701855234124,1.0997644728310165 l -43.070701600594276 0.3697101720423646" fill="#34ff59" stroke="none" /><line stroke="#e1ed5e" stroke-width="0.3" x1="184.99686870605535" x2="189.99668451229388" y1="99.2704041080226" y2="99.22748670261217" /><path d="M 185.99683186730306 99.26182062694052 a86.0,86.0 0 0,1 -10.086455211305974,41.156179273409016" fill="none" id="id40" stroke="none" /><text fill="#e1ed5e" style="font-size:6.75px; font-family:Arial;" text-anchor="middle"><textPath startOffset="21.40746469413373" xlink:href="#id40">April</textPath></text><path d="M 120.99922638620191 99.81974689727618 l 16.29398441388889 -0.13986425939324265 a37.29458468605781,37.29458468605781 0 0,0 0.0,0.6402347242341371 l -16.29398441388889 -0.13986425939324065" fill="#ffc212" stroke="none" /><path d="M 120.99922638620191 100.18025310272382 l 15.290976294555637 0.13125464100816508 a36.29153961579568,36.29153961579568 0 0,0 -0.010694889300094693,0.6229236847021041 l -15.286469973656875 -0.3937252416793403" fill="#ffb510" stroke="none" /><path d="M 120.99303781780057 100.54070618675476 l 38.944338414574275 1.0030680124805935 a59.957254009831686,59.957254009831686 0 0,0 -0.03533284691339473,1.028677286365748 l -38.92138088066403 -1.6714515634104523" fill="#36ff2e" stroke="none" /><path d="M 120.98066250479742 100.90099992219065 l 13.93355158495638 0.5983666574406029 a34.9463938861405,34.9463938861405 0 0,0 -0.03088331070244353,0.5991279770846452 l -13.921226684797363 -0.8374664279019787" fill="#ffa30f" stroke="none" /><path d="M 120.9064616781168 101.97986365728391 l 15.843380039439761 1.5003845620350649 a36.91426545298624,36.91426545298624 0 0,0 -0.06515826207804226,0.6303470787946801 l -15.815289384880053 -1.7721361631126764" fill="#ffbd11" stroke="none" /><path d="M 120.86939407059847 102.33845913500097 l 31.107344969016925 3.48564288749081 a52.302022576193664,52.302022576193664 0 0,0 -0.1076373476258601,0.8913916471292547 l -31.042925535131403 -4.019128211543474" fill="#87ff25" stroke="none" /><path d="M 120.82617615685814 102.69636545807757 l 15.970202436280514 2.0676624399680192 a37.10349632289319,37.10349632289319 0 0,0 -0.08720290469087495,0.6309567782647767 l -15.93235501503443 -2.3415075264328813" fill="#ffc011" stroke="none" /><path d="M 120.77682067341334 103.0534771498775 l 6.911773758849906 1.015792722549584 a27.986018275721218,27.986018275721218 0 0,0 -0.07393440642515182,0.4747119262140146 l -6.893317860286487 -1.134292830695049" fill="#ff4306" stroke="none" /><path d="M 120.7213421655516 103.40968896794604 l 15.909938107915972 2.617974261216068 a37.12389282493861,37.12389282493861 0 0,0 -0.10887055785821795,0.6279364465013136 l -15.86265273256552 -2.89070374063797" fill="#ffc011" stroke="none" /><line stroke="#e1ed5e" stroke-width="0.3" x1="174.33088141563837" x2="178.70328620479359" y1="141.23008692659167" y2="143.65538615756765" /><path d="M 175.20536237346943 141.71514677278685 a86.0,86.0 0 0,1 -30.301960400862466,31.631185727798858" fill="none" id="id41" stroke="none" /><text fill="#e1ed5e" style="font-size:6.75px; font-family:Arial;" text-anchor="middle"><textPath startOffset="22.145653131862474" xlink:href="#id41">May</textPath></text><line stroke="#e1ed5e" stroke-width="0.3" x1="143.1302829299769" x2="145.66735839644613" y1="173.24464959558577" y2="177.55315839532614" /><path d="M 143.63769802327073 174.10635135553383 a86.0,86.0 0 0,1 -40.68552437913181,11.842963189579606" fill="none" id="id42" stroke="none" /><text fill="#e1ed5e" style="font-size:6.75px; font-family:Arial;" text-anchor="middle"><textPath startOffset="21.407464694133747" xlink:href="#id42">June</textPath></text><line stroke="#e1ed5e" stroke-width="0.3" x1="101.45913802915013" x2="101.54496967792366" y1="184.9874750549273" y2="189.98673829345242" /><path d="M 101.47630435890484 185.9873277026323 a86.0,86.0 0 0,1 -42.54439059252881,-10.42667462771756" fill="none" id="id43" stroke="none" /><text fill="#e1ed5e" style="font-size:6.75px; font-family:Arial;" text-anchor="middle"><textPath startOffset="22.145653131862474" xlink:href="#id43">July</textPath></text><line stroke="#e1ed5e" stroke-width="0.3" x1="58.13341422392154" x2="55.67067388415222" y1="173.97424548756322" y2="178.32567169271397" /><path d="M 57.64086615596768 174.84453072859336 a86.0,86.0 0 0,1 -31.369924170532247,-30.572349798747897" fill="none" id="id44" stroke="none" /><text fill="#e1ed5e" style="font-size:6.75px; font-family:Arial;" text-anchor="middle"><textPath startOffset="22.145653131862474" xlink:href="#id44">August</textPath></text><line stroke="#e1ed5e" stroke-width="0.3" x1="26.387840678322732" x2="22.057713659400534" y1="142.50000000000003" y2="145.00000000000006" /><path d="M 25.521815274538284 143.00000000000003 a86.0,86.0 0 0,1 -11.493303480769212,-40.785679425670985" fill="none" id="id45" stroke="none" /><text fill="#e1ed5e" style="font-size:6.75px; font-family:Arial;" text-anchor="middle"><textPath startOffset="21.40746469413373" xlink:href="#id45">September</textPath></text><line stroke="#e1ed5e" stroke-width="0.3" x1="15.003131293944662" x2="10.003315487706104" y1="100.72959589197737" y2="100.7725132973878" /><path d="M 14.003168132696942 100.73817937305945 a86.0,86.0 0 0,1 10.791469493833604,-42.45332614584628" fill="none" id="id46" stroke="none" /><text fill="#e1ed5e" style="font-size:6.75px; font-family:Arial;" text-anchor="middle"><textPath startOffset="22.145653131862435" xlink:href="#id46">October</textPath></text><line stroke="#e1ed5e" stroke-width="0.3" x1="26.387840678322718" x2="22.05771365940052" y1="57.49999999999999" y2="54.99999999999999" /><path d="M 25.521815274538284 56.99999999999999 a86.0,86.0 0 0,1 29.574782752854787,-30.34633250058573" fill="none" id="id47" stroke="none" /><text fill="#e1ed5e" style="font-size:6.75px; font-family:Arial;" text-anchor="middle"><textPath startOffset="21.40746469413373" xlink:href="#id47">November</textPath></text><line stroke="#e1ed5e" stroke-width="0.3" x1="56.869717070023135" x2="54.33264160355391" y1="26.7553504044142" y2="22.446841604673864" /><path d="M 56.362301976729285 25.89364864446614 a86.0,86.0 0 0,1 42.16139366436587,-11.88097634709845" fill="none" id="id48" stroke="none" /><text fill="#e1ed5e" style="font-size:6.75px; font-family:Arial;" text-anchor="middle"><textPath startOffset="22.145653131862474" xlink:href="#id48">December</textPath></text></svg>