<?xml version="1.0" encoding="utf-8" ?>
<svg baseProfile="full" height="200mm" version="1.1" viewBox="0,0,200,200" width="200mm" xmlns="http://www.w3.org/2000/svg" xmlns:ev="http://www.w3.org/2001/xml-events" xmlns:xlink="http://www.w3.org/1999/xlink"><defs /><rect fill="#1a1a1a" height="200" width="200" x="0" y="0" /><text alignment-baseline="middle" fill="#e1ed5e" style="dominant-baseline: central; font-size:9.0px; font-family:Arial;" text-anchor="middle" x="100.0" y="100.0">2023</text><line stroke="#e1ed5e" stroke-width="0.3" x1="100.0" x2="100.0" y1="15.0" y2="10.0" /><path d="M 100.0 14.0 a86.0,86.0 0 0,1 42.46469731375804,11.215312516191453" fill="none" id="id25" stroke="none" /><text fill="#e1ed5e" style="font-size:6.75px; font-family:Arial;" text-anchor="middle"><textPath startOffset="22.20632615414155" xlink:href="#id25">January</textPath></text><path d="M 100.0 79.0 l 0.0 -10.284722259381425 a31.284722259381425,31.284722259381425 0 0,0 0.5385150664871017,0.0046351691925285874 l -0.17703458721457327 10.283198466797456" fill="#ff800b" stroke="none" /><path d="M 101.44485096284872 79.0497635885617 l 0.7045299345116389 -10.215634045640615 a31.23989948110208,31.23989948110208 0 0,0 0.5361507741106427,0.04161561891631209 l -0.8802708979846228 10.201993164535839" fill="#ff7f0b" stroke="none" /><path d="M 102.52436894288641 79.15227682838746 l 1.2081540363920527 -9.977646480854053 a31.05052563165478,31.05052563165478 0 0,0 0.5300550529065641,0.0688163585491508 l -1.3797238178064628 9.955371799140766" fill="#ff7c0b" stroke="none" /><path d="M 107.08798089147638 80.2323363322302 l 5.2002250707141 -14.502903121282106 a36.407028906683394,36.407028906683394 0 0,0 0.5880908414883675,0.216598820022938 l -5.449098237975044 14.411241033452843" fill="#ffc312" stroke="none" /><path d="M 109.41281617654863 81.2277094730956 l 5.514587062773958 -10.997923313983074 a33.30304790257952,33.30304790257952 0 0,0 0.5102336378087738,0.2613614868676646 l -5.703081188171488 10.901369301802909" fill="#ff9b0e" stroke="none" /><line stroke="#e1ed5e" stroke-width="0.3" x1="143.23703022742887" x2="145.7803849466894" y1="26.81831364943548" y2="22.513508569990506" /><path d="M 143.74570117128098 25.957352633546492 a86.0,86.0 0 0,1 28.547481713284135,27.462654790039103" fill="none" id="id26" stroke="none" /><text fill="#e1ed5e" style="font-size:6.75px; font-family:Arial;" text-anchor="middle"><textPath startOffset="19.985693538727396" xlink:href="#id26">February</textPath></text><path d="M 110.68208982089419 81.91981866633111 l 6.920741365568545 -11.713836987978823 a34.60553703570838,34.60553703570838 0 0,0 0.5102469992936078,0.30741810788175633 l -7.12135043107979 11.592972270638452" fill="#ffac0f" stroke="none" /><path d="M 111.2981086023043 82.29822771554956 l 6.640996189588466 -10.40505153809743 a33.34374043394433,33.34374043394433 0 0,0 0.48115489691310037,0.3129565291464702 l -6.819118112285847 10.289196084791433" fill="#ff9b0e" stroke="none" /><path d="M 111.90073688211348 82.69761687909136 l 6.395116907231898 -9.297807684348703 a32.284801637259605,32.284801637259605 0 0,0 0.45516782997673005,0.3188741527584453 l -6.554215876792279 9.186348688826321" fill="#ff8d0d" stroke="none" /><path d="M 112.48926042617603 83.11751280151076 l 7.308716049380616 -9.879632654824908 a33.289201425835465,33.289201425835465 0 0,0 0.45773261666771015,0.344754717081786 l -7.477694819806708 9.752361348237274" fill="#ff9a0e" stroke="none" /><path d="M 112.77801427241765 83.33499621200491 l 7.476327104739826 -9.750577583069655 a33.2869536574583,33.2869536574583 0 0,0 0.45169991096630224,0.3525589452544614 l -7.643059570865558 9.620440248591965" fill="#ff9a0e" stroke="none" /><path d="M 113.89432698308785 84.25364557470405 l 8.173304767363422 -9.262755500825524 a33.353200001954114,33.353200001954114 0 0,0 0.42722115852566955,0.3835633743422794 l -8.331536913485081 9.12069311771395" fill="#ff9b0e" stroke="none" /><path d="M 115.4437574822437 85.77008943001954 l 9.032156999880339 -8.322248423681394 a33.28168062180233,33.28168062180233 0 0,0 0.3845719739936375,0.4246539789331903 l -9.174072614490013 8.165541657478654" fill="#ff9a0e" stroke="none" /><line stroke="#e1ed5e" stroke-width="0.3" x1="172.23445277983987" x2="176.4835382374775" y1="55.19839476539836" y2="52.563006222186495" /><path d="M 173.08426987136738 54.67131705675599 a86.0,86.0 0 0,1 12.851231095245387,41.99856678651699" fill="none" id="id27" stroke="none" /><text fill="#e1ed5e" style="font-size:6.75px; font-family:Arial;" text-anchor="middle"><textPath startOffset="22.20632615414155" xlink:href="#id27">March</textPath></text><path d="M 118.3937258080291 89.86733742301442 l 1.8122208984191825 -0.998309046807022 a23.06900109656906,23.06900109656906 0 0,0 0.18860764987625053,0.3494613306829991 l -1.829136647513898 0.9669667327915642" fill="#ff0c01" stroke="none" /><path d="M 119.61058180528143 92.48833698450437 l 4.809674171841195 -1.842303912853524 a26.15044166519646,26.15044166519646 0 0,0 0.1573950397684167,0.42174045468886456 l -4.840673800111237 1.759240321135326" fill="#ff3905" stroke="none" /><line stroke="#e1ed5e" stroke-width="0.3" x1="184.98032266829074" x2="189.97916517819016" y1="98.17113171792111" y2="98.06355123074" /><path d="M 185.9800911702706 98.14961562048488 a86.0,86.0 0 0,1 -9.607161424134198,41.387399972396054" fill="none" id="id28" stroke="none" /><text fill="#e1ed5e" style="font-size:6.75px; font-family:Arial;" text-anchor="middle"><textPath startOffset="21.466115282336823" xlink:href="#id28">April</textPath></text><path d="M 120.99980553446 99.90962569577887 l 5.179026429122262 -0.02228834497094328 a26.179074388717392,26.179074388717392 0 0,0 -0.0019393741421347569,0.45064225052009543 l -5.178642757690624 -0.06686338375283686" fill="#ff3905" stroke="none" /><path d="M 120.9764740272857 100.99374915477107 l 10.240635771337397 0.4851446019406002 a31.252121062784383,31.252121062784383 0 0,0 -0.030081876627789446,0.537132115050873 l -10.230767543822079 -0.6613484333268965" fill="#ff7f0b" stroke="none" /><path d="M 120.8583938346157 102.4346265915055 l 5.247220225089498 0.6124643149793985 a26.282843233308316,26.282843233308316 0 0,0 -0.05631848943812213,0.44891377307787494 l -5.235900226404528 -0.7026958423446683" fill="#ff3a05" stroke="none" /><path d="M 120.49622156327973 104.57218783832717 l 5.034007977483049 1.1229596626690117 a26.157739303352262,26.157739303352262 0 0,0 -0.10181518129486425,0.4386171362674117 l -5.013932230257631 -1.2094454562849883" fill="#ff3905" stroke="none" /><path d="M 119.79798401119884 107.00284435728193 l 4.856461534948806 1.7178034004439824 a26.151317031887498,26.151317031887498 0 0,0 -0.15376443791423378,0.4230936939416601 l -4.826172836029345 -1.8011448913917736" fill="#ff3905" stroke="none" /><path d="M 118.81262510543309 109.33194174019688 l 9.208722192792335 4.567956812150474 a31.279435483609884,31.279435483609884 0 0,0 -0.2434155692888621,0.48028201104796686 l -9.128727953717203 -4.725793034901135" fill="#ff7f0b" stroke="none" /><line stroke="#e1ed5e" stroke-width="0.3" x1="174.80103733775053" x2="179.2010983576182" y1="140.37084112569926" y2="142.7455964860345" /><path d="M 175.68104954172406 140.8457921977663 a86.0,86.0 0 0,1 -30.038265399797805,32.042727171017184" fill="none" id="id29" stroke="none" /><text fill="#e1ed5e" style="font-size:6.75px; font-family:Arial;" text-anchor="middle"><textPath startOffset="22.206326154141568" xlink:href="#id29">May</textPath></text><path d="M 118.48025628344425 109.97397251340804 l 4.5124076659259815 2.43538992852373 a26.127664872772243,26.127664872772243 0 0,0 -0.2170133866550792,0.39394233257817735 l -4.469817869819395 -2.5127027794997137" fill="#ff3805" stroke="none" /><path d="M 118.30583269289576 110.29060199501023 l 4.475707822089222 2.516013809136837 a26.134421680820335,26.134421680820335 0 0,0 -0.2238201700479738,0.39024933233692677 l -4.4317356558888665 -2.592682987332078" fill="#ff3805" stroke="none" /><path d="M 117.35343817320211 111.8261652097733 l 6.072676620468335 4.1384581120119615 a28.348757505977478,28.348757505977478 0 0,0 -0.27827557882679904,0.4008767260733965 l -6.000540134479399 -4.242376100272377" fill="#ff5708" stroke="none" /><path d="M 116.93607887273984 112.41649034213515 l 4.137098359548533 3.0330658124460768 a26.12982173756636,26.12982173756636 0 0,0 -0.2690609311435428,0.3604510865757384 l -4.084276161709899 -3.10382977853113" fill="#ff3805" stroke="none" /><path d="M 116.27256486870786 113.27417163493432 l 3.9794814167647 3.2462196199781266 a26.13558313801914,26.13558313801914 0 0,0 -0.2873719376992132,0.3461580113622467 l -3.923013479171943 -3.314238888454144" fill="#ff3805" stroke="none" /><path d="M 115.80600337817218 113.82643327865902 l 7.734096730243838 6.765465617898496 a31.27559133382284,31.27559133382284 0 0,0 -0.35794340948093284,0.40215321508385116 l -7.616494471114572 -6.897593002723213" fill="#ff7f0b" stroke="none" /><path d="M 115.32070863581623 114.36230785411682 l 3.752994091323822 3.5182221524835136 a26.144205649440664,26.144205649440664 0 0,0 -0.31060990613983386,0.32567324478557574 l -3.6918776338050234 -3.5823025138515963" fill="#ff3905" stroke="none" /><path d="M 115.07121518719521 114.62390073753431 l 7.372723924621923 7.153901095548001 a31.273040394818633,31.273040394818633 0 0,0 -0.378194371013387,0.38310890112827434 l -7.248488928553 -7.27975049065694" fill="#ff7f0b" stroke="none" /><path d="M 114.81725581225074 114.88116024355365 l 7.2526589559324774 7.283938502691038 a31.278950434847545,31.278950434847545 0 0,0 -0.38480563497514453,0.3766133046733892 l -7.126203368581539 -7.407701910286999" fill="#ff7f0b" stroke="none" /><path d="M 114.29624159901734 115.38237550388516 l 6.997556560405271 7.5291846375363125 a31.27883354871474,31.27883354871474 0 0,0 -0.39753975077633025,0.3631431367576626 l -6.866917260162077 -7.648520540880558" fill="#ff7f0b" stroke="none" /><path d="M 113.75828350139079 115.86535959552629 l 3.366093441594696 3.881609422980999 a26.137847484124233,26.137847484124233 0 0,0 -0.34244877194506407,0.2918422727190307 l -3.2987791930725847 -3.938976085922977" fill="#ff3805" stroke="none" /><path d="M 113.20401910651253 116.32954008644616 l 6.444728259273265 7.970258722524009 a31.249855922882304,31.249855922882304 0 0,0 -0.42119226536353066,0.33462060901344165 l -6.306578501192383 -8.080013245542577" fill="#ff7f0b" stroke="none" /><path d="M 112.63410532772338 116.77436683061366 l 3.08466763204724 4.0955291307362245 a26.12723446517798,26.12723446517798 0 0,0 -0.3615698579513717,0.2674807369979375 l -3.0137128036773038 -4.148019816473931" fill="#ff3805" stroke="none" /><path d="M 112.34349029814194 116.9893568818739 l 6.021267090784929 8.287563162084433 a31.24399143615947,31.24399143615947 0 0,0 -0.43782156421834345,0.3123740611862739 l -5.877718198717701 -8.389981485114927" fill="#ff7f0b" stroke="none" /><line stroke="#e1ed5e" stroke-width="0.3" x1="143.8653032363475" x2="146.44561519142675" y1="172.8068346515853" y2="177.08958963109032" /><path d="M 144.38136562736335 173.6633856474863 a86.0,86.0 0 0,1 -40.68145358897372,12.25698825130547" fill="none" id="id30" stroke="none" /><text fill="#e1ed5e" style="font-size:6.75px; font-family:Arial;" text-anchor="middle"><textPath startOffset="21.466115282336833" xlink:href="#id30">June</textPath></text><path d="M 110.8373102113329 117.98757091392108 l 5.299075118256114 8.795308762883813 a31.268283855804818,31.268283855804818 0 0,0 -0.463414026368143,0.27379317511093776 l -5.14689322085959 -8.885220510288502" fill="#ff7f0b" stroke="none" /><path d="M 109.57404056367764 118.69057910512821 l 4.681548065075164 9.13938518045467 a31.26865394111241,31.26865394111241 0 0,0 -0.4811592063376441,0.24126321475896687 l -4.523534951054759 -9.218616236122939" fill="#ff7f0b" stroke="none" /><path d="M 108.92500713936063 119.00905698771935 l 4.368693195367034 9.30472509611268 a31.279269884066444,31.279269884066444 0 0,0 -0.4893448202830546,0.22463420614415325 l -4.20788037931656 -9.378546372590908" fill="#ff7f0b" stroke="none" /><path d="M 107.93186726928326 119.44442032107085 l 3.8835722962306995 9.520307074175175 a31.28194439620447,31.28194439620447 0 0,0 -0.5003307534816823,0.1990919324603151 l -3.719120466707151 -9.58574585104156" fill="#ff800b" stroke="none" /><path d="M 107.59598834532513 119.57807347666477 l 3.7498054056801755 9.664833912071902 a31.366776506147094,31.366776506147094 0 0,0 -0.505049581689777,0.19096653642024403 l -3.5828856032301237 -9.727948698598778" fill="#ff810b" stroke="none" /><path d="M 107.2578585660854 119.70592522655815 l 3.5826579274740338 9.727330532595051 a31.366117745600253,31.366117745600253 0 0,0 -0.5082512537053488,0.18224081686527757 l -3.41468711313895 -9.78755889050029" fill="#ff810b" stroke="none" /><path d="M 106.91757812671514 119.82793768551818 l 1.7127644166536633 4.909317321943738 a26.199515219180707,26.199515219180707 0 0,0 -0.42708985913796754,0.14489206867965784 l -1.6280048245784688 -4.938072377521519" fill="#ff3905" stroke="none" /><path d="M 106.57524785965236 119.94407469862006 l 4.559435248332182 13.829701802460422 a35.56190584122528,35.56190584122528 0 0,0 -0.5830097670961748,0.18666131658256266 l -4.320704136145067 -13.906135965702692" fill="#ffb811" stroke="none" /><path d="M 105.53697534728816 120.25689768951611 l 6.052863808596597 22.144263827970242 a43.95660211721608,43.95660211721608 0 0,0 -0.7315834543571136,0.19321783955425906 l -5.6707899114279865 -22.245173016828083" fill="#deff1b" stroke="none" /><path d="M 104.48393922423573 120.51570834832081 l 2.2205217446377503 10.159722113953803 a31.399551444710056,31.399551444710056 0 0,0 -0.5290204480202823,0.11086137845212114 l -2.04530983518809 -10.196439473132466" fill="#ff810b" stroke="none" /><path d="M 103.7750983002368 120.6578951692458 l 2.9300269652316793 16.033540076829933 a37.29906332929277,37.29906332929277 0 0,0 -0.6325761794217507,0.10998147719927716 l -2.6536018143378786 -16.081600132550214" fill="#ffce13" stroke="none" /><path d="M 103.41894727170886 120.7198165907248 l 4.110829811187391 24.91282636275173 a46.249709683819425,46.249709683819425 0 0,0 -0.786606553218008,0.12285176623182863 l -3.681387394360866 -24.979896436330662" fill="#c3ff1e" stroke="none" /><path d="M 102.70371172650421 120.8252237178851 l 1.7638924109932301 13.586305711929072 a34.70032916887605,34.70032916887605 0 0,0 -0.5929998357047573,0.07180402176618056 l -1.5297651522370925 -13.614655262420602" fill="#ffad10" stroke="none" /><path d="M 102.34483914955558 120.86867818915974 l 1.5080492686351292 13.421387512447854 a34.505845229230275,34.505845229230275 0 0,0 -0.5908179605239658,0.061240697317203246 l -1.2767987115055608 -13.445357578220817" fill="#ffaa0f" stroke="none" /><path d="M 101.98527174616119 120.90594882070398 l 1.1704731900899377 12.325694281068749 a33.38114481779008,33.38114481779008 0 0,0 -0.5724956660199803,0.04939733500033556 l -0.9581332063284157 -12.344015868347748" fill="#ff9c0e" stroke="none" /><path d="M 101.62511606390274 120.93702456842531 l 0.4804846509605386 6.190277214879695 a27.208896640858775,27.208896640858775 0 0,0 -0.46726387461003543,0.03222525254016407 l -0.3738580155715728 -6.197630811936144" fill="#ff4806" stroke="none" /><path d="M 101.26447882468166 120.96189622390904 l 0.746829714040826 12.380568703154557 a33.40307365274045,33.40307365274045 0 0,0 -0.5742337209667923,0.029681324242692358 l -0.5336079246605541 -12.39158983415945" fill="#ff9c0e" stroke="none" /><path d="M 100.90346689309514 120.98055641714683 l 0.9503914500614485 22.070251371444982 a43.09070482142023,43.09070482142023 0 0,0 -0.7413235563797175,0.02553268219307735 l -0.5703475420070788 -22.083340852064154" fill="#e8ff1a" stroke="none" /><line stroke="#e1ed5e" stroke-width="0.3" x1="102.19456741930631" x2="102.32365962044197" y1="184.97166512339345" y2="189.96999836594603" /><path d="M 102.22038585953345 185.97133177190398 a86.0,86.0 0 0,1 -42.740103519485714,-10.115201625700543" fill="none" id="id31" stroke="none" /><text fill="#e1ed5e" style="font-size:6.75px; font-family:Arial;" text-anchor="middle"><textPath startOffset="22.20632615414155" xlink:href="#id31">July</textPath></text><path d="M 100.18074693466247 120.99922214144158 l 0.14196386200097882 16.49339547463224 a37.49400642720663,37.49400642720663 0 0,0 -0.6454215933268572,0.0 l 0.14196386200096747 -16.49339547463224" fill="#ffd113" stroke="none" /><path d="M 99.81925306533755 120.99922214144158 l -0.07430142436444982 8.632357271056737 a29.632677033043034,29.632677033043034 0 0,0 -0.5100211417206424,-0.008780476481782571 l 0.22288225597776018 -8.629799317295793" fill="#ff6909" stroke="none" /><path d="M 99.09653310690486 120.98055641714683 l -0.32782886430928926 7.612931957304099 a28.619987188363005,28.619987188363005 0 0,0 -0.4920074693739109,-0.02543116625705523 l 0.45882440209668907 -7.606160984284842" fill="#ff5b08" stroke="none" /><path d="M 98.73552117531835 120.96189622390904 l -0.2736529876349772 4.536482079572389 a25.544728332466416,25.544728332466416 0 0,0 -0.43868477630823494,-0.03025427059572353 l 0.3517005247221422 -4.53109946446038" fill="#ff3004" stroke="none" /><path d="M 98.37488393609728 120.93702456842531 l -0.386945164397324 4.985170347873143 a26.00016499303414,26.00016499303414 0 0,0 -0.4459098648523188,-0.038474979430316955 l 0.4726993469911845 -4.9777711161641625" fill="#ff3605" stroke="none" /><path d="M 98.01472825383883 120.90594882070398 l -2.9488232662438048 31.052649796986117 a52.19234871037772,52.19234871037772 0 0,0 -0.8936508239450441,-0.09263056181966378 l 3.4829066867944425 -30.99728986671069" fill="#81ff25" stroke="none" /><path d="M 97.65516085044442 120.86867818915974 l -1.2763645289755166 11.359431887810656 a32.43091419024027,32.43091419024027 0 0,0 -0.554217416583371,-0.06710801090907051 l 1.471709368610277 -11.335778348176236" fill="#ff8f0d" stroke="none" /><path d="M 97.2962882734958 120.8252237178851 l -3.799417367028801 29.264849462445078 a50.510455543560354,50.510455543560354 0 0,0 -0.8612547607751236,-0.1193620620721736 l 4.302600718990756 -29.195112834880298" fill="#93ff23" stroke="none" /><path d="M 96.93821686468263 120.77559828337769 l -1.8398648267491085 12.484323953366383 a33.619169828213984,33.619169828213984 0 0,0 -0.571788655137745,-0.08930162850489941 l 2.0544893454953708 -12.450804017514377" fill="#ff9f0e" stroke="none" /><path d="M 96.58105272829116 120.7198165907248 l -1.8128490525961827 10.986393439664857 a32.13495678027579,32.13495678027579 0 0,0 -0.5449951385236402,-0.09475439061908132 l 2.001693162591873 -10.953560470524769" fill="#ff8b0c" stroke="none" /><path d="M 96.22490169976321 120.6578951692458 l -1.94242389067418 10.629230265412911 a31.805255508604674,31.805255508604674 0 0,0 -0.5377093205893645,-0.10305327104991806 l 2.1251008258352395 -10.594219796014524" fill="#ff870c" stroke="none" /><path d="M 95.86986931433489 120.58985236759428 l -3.516244880448411 17.52946056356643 a38.878645522211976,38.878645522211976 0 0,0 -0.6550284168485112,-0.1372675734726123 l 3.8174647587263086 -17.466337009367276" fill="#ffe215" stroke="none" /><path d="M 95.16358092515715 120.4354850818985 l -3.640373157337577 15.3817918170652 a36.80670225658084,36.80670225658084 0 0,0 -0.6152796155527317,-0.15122075982418806 l 3.9046060576335195 -15.316849798926981" fill="#ffc812" stroke="none" /><path d="M 94.81253420990036 120.34920634021253 l -0.7628503900695174 2.9924823839538135 a24.088185800094145,24.088185800094145 0 0,0 -0.4009071977364513,-0.10588323471101502 l 0.8142480306174579 -2.978907799939217" fill="#ff1b02" stroke="none" /><path d="M 94.46302465271185 120.25689768951611 l -1.5501878753217053 5.671326892452199 a26.87937336540604,26.87937336540604 0 0,0 -0.4452617245097025,-0.12583541094559417 l 1.6475807679360217 -5.643802688168083" fill="#ff4306" stroke="none" /><path d="M 94.11515582081647 120.15858648285463 l -2.2631068096029554 7.75229266098391 a29.075871094390763,29.075871094390763 0 0,0 -0.4792326964627676,-0.14438888023847826 l 2.396214480505969 -7.712188411639706" fill="#ff6109" stroke="none" /><path d="M 93.42475214034765 119.94407469862007 l -2.567762101486697 7.78854885069595 a29.2009082063823,29.2009082063823 0 0,0 -0.4760168907031623,-0.1614907742357775 l 2.7014487251270847 -7.743195089562049" fill="#ff6309" stroke="none" /><path d="M 93.08242187328487 119.8279376855182 l -2.735929695442612 7.842028310991401 a29.305583623611007,29.305583623611007 0 0,0 -0.47486270816403053,-0.17026887234171062 l 2.870511964236369 -7.793771897609732" fill="#ff6509" stroke="none" /><path d="M 92.7421414339146 119.70592522655815 l -0.4918762701160612 1.335500948574336 a22.4232023920533,22.4232023920533 0 0,0 -0.36104535593678466,-0.1365164601922449 l 0.5147918468131288 -1.326836238275458" fill="#ff0300" stroke="none" /><path d="M 92.40401165467489 119.57807347666478 l -1.0978199569259592 2.829546176709604 a24.03505193101483,24.03505193101483 0 0,0 -0.3844222561841582,-0.15296954930686643 l 1.1463632891519755 -2.810229782996671" fill="#ff1a02" stroke="none" /><path d="M 92.06813273071674 119.44442032107085 l -1.8753352874662934 4.597253879126734 a25.96504034923807,25.96504034923807 0 0,0 -0.412384857703375,-0.1723769039654136 l 1.9541916046671306 -4.564291932141348" fill="#ff3605" stroke="none" /><path d="M 91.7346041902142 119.30500536409082 l -3.338663818038284 7.79792334201541 a29.482587137060648,29.482587137060648 0 0,0 -0.46481309803249216,-0.2037604025796445 l 3.4723975907285194 -7.739298386141313" fill="#ff6709" stroke="none" /><path d="M 91.40352486487194 119.15986991738527 l -5.741570911250581 12.796844061291605 a35.02586376869293,35.02586376869293 0 0,0 -0.5479579630431436,-0.25154062519219905 l 5.960996870061144 -12.69611636576533" fill="#ffb110" stroke="none" /><path d="M 91.07499286063937 119.00905698771935 l -3.230702035223742 6.880957980086104 a28.601645766813228,28.601645766813228 0 0,0 -0.4438530490356635,-0.21307643644249163 l 3.3486677522596477 -6.82432726714405" fill="#ff5b08" stroke="none" /><path d="M 90.7491055286396 118.85261126421891 l -2.4660425183956756 5.025604940612007 a26.59804168630773,26.59804168630773 0 0,0 -0.40928824924863727,-0.20522562485794424 l 2.5521846753270734 -4.982411474844761" fill="#ff3f05" stroke="none" /><path d="M 90.42595943632237 118.69057910512821 l -4.477878747188932 8.741779021182474 a30.821919289513243,30.821919289513243 0 0,0 -0.4701210071440563,-0.24594509164679887 l 4.6276906568594836 -8.663404510590958" fill="#ff790b" stroke="none" /><path d="M 90.10565033884886 118.52300852407294 l -2.7800628950978314 5.204498574125075 a26.90047075314925,26.90047075314925 0 0,0 -0.4065521793830658,-0.22168466361407096 l 2.869237886349538 -5.155873258751238" fill="#ff4306" stroke="none" /><line stroke="#e1ed5e" stroke-width="0.3" x1="58.666819895761336" x2="56.23545636021788" y1="174.27360380694188" y2="178.64263932499728" /><path d="M 58.180547188652646 175.14741091055294 a86.0,86.0 0 0,1 -31.652253787137756,-30.449443065178592" fill="none" id="id32" stroke="none" /><text fill="#e1ed5e" style="font-size:6.75px; font-family:Arial;" text-anchor="middle"><textPath startOffset="22.20632615414155" xlink:href="#id32">August</textPath></text><path d="M 89.7882731507175 118.34994917583269 l -4.475857187353277 8.042885705661911 a30.204417854265564,30.204417854265564 0 0,0 -0.4521331427102611,-0.2567329983810697 l 4.613639096984746 -7.964649541486208" fill="#ff710a" stroke="none" /><path d="M 89.4739219176387 118.17145234162733 l -5.227702855488622 9.024724360907516 a31.4295027175624,31.4295027175624 0 0,0 -0.46580338301458074,-0.2752048491334692 l 5.3822741095315845 -8.933400939480299" fill="#ff820b" stroke="none" /><path d="M 89.1626897886671 117.98757091392108 l -1.6014023557156036 2.6579785826405584 a24.103117730713322,24.103117730713322 0 0,0 -0.3535362670257178,-0.21717085047830337 l 1.64691782267363 -2.630019265333877" fill="#ff1b02" stroke="none" /><path d="M 88.8546689885994 117.79835938074946 l -3.0592234722041276 4.885378346198693 a26.764179892958907,26.764179892958907 0 0,0 -0.3883586984130668,-0.24786889588307467 l 3.142863972664118 -4.831995021491815" fill="#ff4106" stroke="none" /><path d="M 88.54995079064634 117.60387380957326 l -2.8710133529525064 4.414038389432272 a26.265591379533113,26.265591379533113 0 0,0 -0.37688034453385133,-0.24977574169997954 l 2.9465683962263194 -4.363964626640973" fill="#ff3a05" stroke="none" /><path d="M 88.24862548938628 117.40417183066458 l -0.6851861104007597 1.014783146484602 a22.22444470690812,22.22444470690812 0 0,0 -0.31520942138246566,-0.21680391425981932 l 0.702552416406118 -1.002838442859684" fill="#ff0000" stroke="none" /><path d="M 87.95078237400918 117.19931262002967 l -3.165795803167947 4.5189250787879285 a26.517512748970706,26.517512748970706 0 0,0 -0.3715894921638514,-0.2651192363459748 l 3.2431126231806826 -4.463761580597734" fill="#ff3e05" stroke="none" /><path d="M 87.65650970185807 116.9893568818739 l -2.9923602653578096 4.1186305687748135 a26.09090735721429,26.09090735721429 0 0,0 -0.36106713397253953,-0.26710883381683037 l 3.0628123697489134 -4.066511786218213" fill="#ff3805" stroke="none" /><path d="M 87.36589467227662 116.77436683061367 l -1.8153236416762242 2.410214565406796 a24.017372064450736,24.017372064450736 0 0,0 -0.3280901934463807,-0.2515655698511237 l 1.8565425636160917 -2.3786096537283052" fill="#ff1a02" stroke="none" /><path d="M 87.07902340077011 116.55440617244103 l -1.8332396585549204 2.3487538798695824 a23.979498688353626,23.979498688353626 0 0,0 -0.32320083010154443,-0.25677028638900873 l 1.873397981373823 -2.316849679475443" fill="#ff1a02" stroke="none" /><path d="M 86.51685102203217 116.09983520530335 l -5.435337987870562 6.490178669154647 a29.465537088687213,29.465537088687213 0 0,0 -0.3860469763950962,-0.3289976083941987 l 5.546250440842715 -6.395656670537496" fill="#ff6709" stroke="none" /><path d="M 85.70375840098266 115.38237550388516 l -1.0506007605294554 1.1304184593692261 a22.543245881675297,22.543245881675297 0 0,0 -0.2819668033158546,-0.2666172120156256 l 1.0699033982361246 -1.112166610607672" fill="#ff0500" stroke="none" /><path d="M 85.44109423537348 115.13401014063109 l -2.035054662610539 2.115443179494785 a23.935395599486363,23.935395599486363 0 0,0 -0.2944624091919765,-0.2881934435160812 l 2.07116702417831 -2.0800996330561343" fill="#ff1902" stroke="none" /><path d="M 84.9287848128048 114.62390073753433 l -9.682424494582444 9.39504963261001 a34.491341730624704,34.491341730624704 0 0,0 -0.40977922837811587,-0.42965188267868837 l 9.842710274339517 -9.226990633348823" fill="#ffaa0f" stroke="none" /><path d="M 84.67929136418377 114.36230785411682 l -5.245471251393507 4.917336054307078 a28.189934806393175,28.189934806393175 0 0,0 -0.32882027567581745,-0.3568694664529336 l 5.329337935065056 -4.826315333052802" fill="#ff5507" stroke="none" /><path d="M 83.72743513129214 113.27417163493432 l -1.2044921938912942 0.982551690139382 a22.554416054002537,22.554416054002537 0 0,0 -0.24281664161296468,-0.30295109517760843 l 1.2212267475591199 -0.961672761383514" fill="#ff0500" stroke="none" /><path d="M 83.28015986056508 112.70617746262583 l -12.282587963277438 9.334104935227547 a36.42684290506282,36.42684290506282 0 0,0 -0.3750902080041863,-0.5024946299873585 l 12.44143943797671 -9.121297425730884" fill="#ffc312" stroke="none" /><path d="M 83.06392112726016 112.41649034213515 l -5.038727815883126 3.694085020072851 a27.24780298489645,27.24780298489645 0 0,0 -0.27406126684658905,-0.38064712957412966 l 5.101568875105323 -3.606804285047581" fill="#ff4806" stroke="none" /><path d="M 82.44556493220864 111.52570212397912 l -13.182120175354155 8.654974649818966 a36.7694920180229,36.7694920180229 0 0,0 -0.34282322443930585,-0.532069257435137 l 13.329148263170508 -8.42678379246238" fill="#ffc812" stroke="none" /><path d="M 82.24976979558568 111.22182372390057 l -5.2142907788299 3.296512286958254 a27.168940069757305,27.168940069757305 0 0,0 -0.2465068469538533,-0.3974475267784152 l 5.270262265451709 -3.2062684288145746" fill="#ff4706" stroke="none" /><path d="M 82.05923443525364 110.91462005526583 l -11.00295574541323 6.693866045609153 a33.87916448268602,33.87916448268602 0 0,0 -0.2988128179789843,-0.5008274706139563 l 11.116549439090445 -6.503476481109086" fill="#ffa20f" stroke="none" /><line stroke="#e1ed5e" stroke-width="0.3" x1="26.63291911575756" x2="22.317208475507996" y1="142.92168965132927" y2="145.44649492493687" /><path d="M 25.769776987707644 143.4266507060508 a86.0,86.0 0 0,1 -11.730757126820373,-40.83630448921669" fill="none" id="id33" stroke="none" /><text fill="#e1ed5e" style="font-size:6.75px; font-family:Arial;" text-anchor="middle"><textPath startOffset="21.46611528233685" xlink:href="#id33">September</textPath></text><path d="M 81.87401531095188 110.60418214915194 l -12.988491133418373 7.598612058004902 a36.04791703628596,36.04791703628596 0 0,0 -0.3087212343733688,-0.5382814943202625 l 13.11736436394412 -7.373910717826332" fill="#ffbe11" stroke="none" /><path d="M 81.51974371655577 109.97397251340807 l -13.925457505231835 7.5157036928239265 a36.82416407676389,36.82416407676389 0 0,0 -0.29625476940402445,-0.5604023771875525 l 14.052764782860745 -7.274886300550247" fill="#ffc812" stroke="none" /><path d="M 81.18737489456691 109.33194174019688 l -4.721840165664918 2.342253517813467 a26.270856295877934,26.270856295877934 0 0,0 -0.19746519582128758,-0.40683679065087786 l 4.7614586181009235 -2.2606277711973046" fill="#ff3a05" stroke="none" /><path d="M 81.02952815118164 109.00673069616217 l -5.6883446226689385 2.700691291794756 a27.296903842351625,27.296903842351625 0 0,0 -0.19787055459468492,-0.42619557120602747 l 5.733989794103451 -2.602375653309901" fill="#ff4906" stroke="none" /><path d="M 80.45479744820244 107.68017299344265 l -14.44390467919508 5.675647839567243 a36.518999992926666,36.518999992926666 0 0,0 -0.22486264774333423,-0.5870454171634342 l 14.539461606531924 -5.426178855570651" fill="#ffc412" stroke="none" /><path d="M 80.20201598880116 107.00284435728193 l -32.947876497727634 11.65415887223774 a55.94827584772775,55.94827584772775 0 0,0 -0.3133347729814429,-0.9106975190401502 l 33.143602101652306 -11.085288650108295" fill="#5aff2a" stroke="none" /><path d="M 79.97269907076064 106.31721596034903 l -3.085986804994287 0.9734135002422833 a24.2358690336682,24.2358690336682 0 0,0 -0.1220717185147532,-0.3989374391285792 l 3.102285296015171 -0.9201490885616563" fill="#ff1d03" stroke="none" /><path d="M 79.67330655649465 105.27499134158121 l -11.100924694367437 2.8808070436583044 a32.46863454351947,32.46863454351947 0 0,0 -0.13573232158140766,-0.5421831536758309 l 11.148868330243905 -2.6892960505850816" fill="#ff8f0d" stroke="none" /><path d="M 79.58551787078972 104.9243191809786 l -26.06300832413745 6.286839459959391 a47.810534371760674,47.810534371760674 0 0,0 -0.18609552486216466,-0.8016946505338203 l 26.16736441493017 -5.8372761520769965" fill="#b2ff20" stroke="none" /><path d="M 79.35854240842038 103.8639653848113 l -13.00362986675356 2.4342067636992364 a34.229503100266626,34.229503100266626 0 0,0 -0.10342779755588986,-0.5800780154811535 l 13.043604106648637 -2.2100099974848693" fill="#ffa70f" stroke="none" /><path d="M 79.29508885075956 103.50808413554451 l -13.287347387026047 2.2513080223290345 a34.47672023880109,34.47672023880109 0 0,0 -0.09410214854593617,-0.5859741688230693 l 13.324131289933273 -2.0222546238127515" fill="#ffaa0f" stroke="none" /><path d="M 79.23777060512086 103.15116336523772 l -10.410728572206963 1.5800762942279962 a31.52995301507788,31.52995301507788 0 0,0 -0.076821903210405,-0.5372922121281353 l 10.436384526433967 -1.4006386101194603" fill="#ff830c" stroke="none" /><path d="M 79.18660465613746 102.79330883721812 l -32.553805211218325 4.368957120126382 a53.845669730535995,53.845669730535995 0 0,0 -0.11537970816508543,-0.9196897971831979 l 32.62418642863026 -3.8079495686557756" fill="#70ff27" stroke="none" /><path d="M 79.1416061653843 102.43462659150553 l -10.221858750312682 1.193112438352005 a31.291254228804874,31.291254228804874 0 0,0 -0.05784068915750871,-0.5355329458414685 l 10.240881740971242 -1.0169831706257544" fill="#ff800b" stroke="none" /><path d="M 79.07016306316243 101.71520430193888 l -12.568637634607564 1.0300023552714366 a33.61077146101452,33.61077146101452 0 0,0 -0.042291059426026144,-0.5770279054649408 l 12.584505252697925 -0.8135013133097353" fill="#ff9f0e" stroke="none" /><path d="M 79.04373962182676 101.35467743843564 l -7.13993299817234 0.4615473357374533 a28.154835369281155,28.154835369281155 0 0,0 -0.027100569665426812,-0.4838988765091887 l 7.146819918725298 -0.338576742892827" fill="#ff5507" stroke="none" /><path d="M 79.0235259727143 100.99374915477108 l -7.548620938514055 0.3576118497121069 a28.55708702533108,28.55708702533108 0 0,0 -0.01903515763510857,-0.49121283774052216 l 7.553658229000364 -0.22762176495758796" fill="#ff5a08" stroke="none" /><path d="M 79.0095281055655 100.63252640178507 l -10.10710389116648 0.30456723835934996 a31.111691761001936,31.111691761001936 0 0,0 -0.011523085156211574,-0.5354324881154495 l 10.110849039007698 -0.13054493445377152" fill="#ff7d0b" stroke="none" /><line stroke="#e1ed5e" stroke-width="0.3" x1="15.007084014347285" x2="10.007500721073583" y1="101.09737516637583" y2="101.16192664675087" /><path d="M 14.007167355692545 101.11028546245083 a86.0,86.0 0 0,1 10.666146001902534,-42.60595125391555" fill="none" id="id34" stroke="none" /><text fill="#e1ed5e" style="font-size:6.75px; font-family:Arial;" text-anchor="middle"><textPath startOffset="22.20632615414155" xlink:href="#id34">October</textPath></text><path d="M 79.00175016825051 100.2711162175752 l -17.650128626231055 0.22788737876736243 a38.65159973429894,38.65159973429894 0 0,0 -0.0028633523081758798,-0.6653422360102098 l 17.651436275828736 0.07596433544652274" fill="#ffdf14" stroke="none" /><path d="M 79.00019446554 99.90962569577889 l -7.479725989194719 -0.032189585323961704 a28.479795254072016,28.479795254072016 0 0,0 0.006329285797127263,-0.4902101601051658 l 7.478063696279877 0.1609360034895995" fill="#ff5908" stroke="none" /><path d="M 79.00486145842228 99.54816195383935 l -7.480517085741921 -0.16098880307931432 a28.482249211620374,28.482249211620374 0 0,0 0.014767782476504055,-0.4900708051733028 l 7.476637608809772 0.2897297556776115" fill="#ff5908" stroke="none" /><path d="M 79.01574976396665 99.18683210126434 l -10.212394953650444 -0.3957440295511985 a31.220059883692976,31.220059883692976 0 0,0 0.02543155120686094,-0.5368198511698136 l 10.204069794210085 0.5714749873440211" fill="#ff7f0b" stroke="none" /><path d="M 79.03285615573316 98.82574320788736 l -14.958273322900897 -0.8377323195832703 a35.98171339473169,35.98171339473169 0 0,0 0.03995582338160633,-0.6180989028474024 l 14.941636908514877 1.0950902866836845" fill="#ffbd11" stroke="none" /><path d="M 79.05617556472873 98.46500227214037 l -15.855858682827146 -1.1620946845989861 a36.89838729638193,36.89838729638193 0 0,0 0.051878282435894665,-0.6330464485887485 l 15.833505916571754 1.434855050395513" fill="#ffc912" stroke="none" /><path d="M 79.08570108090925 98.10471618934814 l -29.313010287122868 -2.6563870992559444 a50.433126991776874,50.433126991776874 0 0,0 0.08579125033235456,-0.8639061829539527 l 29.262941911108285 3.1605688129143275" fill="#94ff23" stroke="none" /><path d="M 79.12142395522702 97.74499172005258 l -8.913575750596562 -0.9627182945058153 a29.96541461262106,29.96541461262106 0 0,0 0.05980190231028796,-0.5123461785882514 l 8.895683495282684 1.1160082114189285" fill="#ff6e0a" stroke="none" /><path d="M 79.16333360222342 97.38593545837743 l -16.48168912540403 -2.067710751147902 a37.61088511118159,37.61088511118159 0 0,0 0.08611818262484561,-0.6416804892404646 l 16.443654943721352 2.3511095824530264" fill="#ffd213" stroke="none" /><path d="M 79.21141760316559 97.0276538004421 l -11.127351006214035 -1.590985803798892 a32.24051494565005,32.24051494565005 0 0,0 0.08327894896588622,-0.5487042218338738 l 11.098316163808846 1.7822891380248578" fill="#ff8c0c" stroke="none" /><path d="M 79.26566170972629 96.67025291283419 l -11.851182375557942 -1.9031926383199722 a33.0030273646814,33.0030273646814 0 0,0 0.09490435175001188,-0.5601308562559085 l 11.816666162287706 2.1069092828917086" fill="#ff970d" stroke="none" /><path d="M 79.32604984820605 96.31383870115002 l -18.368113113418982 -3.275031002515439 a39.65779749634966,39.65779749634966 0 0,0 0.12560998532376189,-0.6710135642858539 l 18.309017404185358 3.590722644263866" fill="#ffec16" stroke="none" /><path d="M 79.3925641242962 95.95851677861259 l -26.858318181864405 -5.267391971587645 a48.36995933026964,48.36995933026964 0 0,0 0.1672695477679647,-0.815665719487364 l 26.763669338181444 5.728933347238411" fill="#abff21" stroke="none" /><path d="M 79.46518482838121 95.60439243477599 l -10.386441531011648 -2.223283754341802 a31.621730477160668,31.621730477160668 0 0,0 0.11851465148863242,-0.5312779442356985 l 10.346632492520978 2.4017398681274598" fill="#ff840c" stroke="none" /><path d="M 79.54389044137918 95.25157060432595 l -13.162559190532313 -3.0553944191349527 a34.51252750231235,34.51252750231235 0 0,0 0.1393109672520302,-0.5775338979558948 l 13.108015423019468 3.2815135487502443" fill="#ffaa0f" stroke="none" /><path d="M 79.62865764111835 94.90015583598534 l -11.467530769590645 -2.870827991629998 a32.82141765225451,32.82141765225451 0 0,0 0.1419192912400645,-0.5468729216703557 l 11.416415146480274 3.0677973388492172" fill="#ff940d" stroke="none" /><path d="M 79.71946130924805 94.55025226153421 l -22.14029228124635 -5.949497181932108 a43.925729192696025,43.925729192696025 0 0,0 0.20250436658916118,-0.7285159508046001 l 22.034601144090825 6.32972443615565" fill="#deff1b" stroke="none" /><path d="M 79.81627453868168 94.20196356495316 l -6.011815624581912 -1.7269718664630083 a27.254946756889456,27.254946756889456 0 0,0 0.1334118000544116,-0.44979826722502864 l 5.981197927415793 1.830199520434576" fill="#ff4806" stroke="none" /><path d="M 79.91906864156998 93.8553929516997 l -10.52828914413879 -3.2215736674215996 a32.010150280410116,32.010150280410116 0 0,0 0.16575849079763294,-0.5254997134208024 l 10.471275169572953 3.4023235472688165" fill="#ff890c" stroke="none" /><path d="M 80.02781315780177 93.51064311812611 l -10.446361149358122 -3.394228491388673 a31.98395412930031,31.98395412930031 0 0,0 0.1746365112545271,-0.5221409404963241 l 10.386387344331823 3.573542534807319" fill="#ff890c" stroke="none" /><path d="M 80.14247586403 93.16781622104843 l -17.77894961439562 -6.1170290077725 a39.80183749725405,39.80183749725405 0 0,0 0.2284756613525036,-0.6459314615069759 l 17.671020872233306 6.422158095706086" fill="#ffee16" stroke="none" /><path d="M 80.2630227832202 92.82701384747504 l -44.82377082617943 -16.290249712949457 a68.69216567517252,68.69216567517252 0 0,0 0.4134464070108478,-1.1078308181680085 l 44.536719830666954 17.059403668146807" fill="#3aff92" stroke="none" /><path d="M 80.38941819471856 92.48833698450439 l -6.120652038636298 -2.3444625970739943 a27.55430288033301,27.55430288033301 0 0,0 0.17346936044254863,-0.4414606011186464 l 6.079389128312059 2.449472203088404" fill="#ff4c07" stroke="none" /><path d="M 80.52162464483688 92.15188598940014 l -14.761874838914773 -5.947768981425825 a36.91505276825045,36.91505276825045 0 0,0 0.24254650997476349,-0.5873456125204934 l 14.657306642053808 6.20098916439963" fill="#ffc912" stroke="none" /><path d="M 80.65960295795067 91.81776055985345 l -16.408086920345102 -6.941682512779197 a38.81606781795087,38.81606781795087 0 0,0 0.26562997870553207,-0.6131106142380418 l 16.286166231796894 7.2230922716038375" fill="#ffe115" stroke="none" /><path d="M 80.803312248108 91.48605970444005 l -23.699277910151434 -10.510888116884917 a46.92555770795036,46.92555770795036 0 0,0 0.33383664746525327,-0.7355648009651702 l 23.51483894572283 10.917274926692158" fill="#bcff1f" stroke="none" /><path d="M 80.95270993114464 91.15688171328213 l -10.829735566982004 -5.027940052705497 a32.939989682757485,32.939989682757485 0 0,0 0.24319407120232336,-0.5122287361727179 l 10.74158330193793 5.213611204518747" fill="#ff960d" stroke="none" /><path d="M 81.10775173730289 90.83032412892265 l -9.311599618275796 -4.519544161899915 a31.350466988616386,31.350466988616386 0 0,0 0.2398161243312284,-0.48345467287348826 l 9.232423480991155 4.679158423272365" fill="#ff800b" stroke="none" /><path d="M 81.26839172434947 90.50648371742162 l -2.915888841055096 -1.4778249567993271 a24.26900203981713,24.26900203981713 0 0,0 0.1920609145540742,-0.3710005551571837 l 2.890018493340908 1.5277982342168464" fill="#ff1e03" stroke="none" /><path d="M 81.43458229118936 90.18545643968196 l -26.888591074798196 -14.21456023873605 a51.41463550280314,51.41463550280314 0 0,0 0.42035602368884345,-0.7788558708795749 l 26.639926951890878 14.675297092948098" fill="#8aff24" stroke="none" /><path d="M 81.6062741919709 89.86733742301443 l -15.52469593153158 -8.552182800063473 a38.72444680130285,38.72444680130285 0 0,0 0.3266542783823131,-0.581081512178272 l 15.375184011856836 8.818147822176531" fill="#ffe015" stroke="none" /><line stroke="#e1ed5e" stroke-width="0.3" x1="26.266209847984243" x2="21.928928074336255" y1="57.711370442889674" y2="55.22380399835377" /><path d="M 25.398753493254645 57.213857153982495 a86.0,86.0 0 0,1 29.58750427330803,-30.492523968695096" fill="none" id="id35" stroke="none" /><text fill="#e1ed5e" style="font-size:6.75px; font-family:Arial;" text-anchor="middle"><textPath startOffset="21.46611528233685" xlink:href="#id35">November</textPath></text><path d="M 81.78341655067845 89.55222093294921 l -4.957550207016176 -2.843309746902401 a26.715042814530467,26.715042814530467 0 0,0 0.2322177434239838,-0.3969353979990827 l 4.907872789121869 2.9282245572553753" fill="#ff4106" stroke="none" /><path d="M 81.96595687620814 89.24020034530311 l -9.571231577991119 -5.710562713029555 a32.14535779681289,32.14535779681289 0 0,0 0.2876002327837165,-0.4727391633069074 l 9.471515546921182 5.874469649543537" fill="#ff8b0c" stroke="none" /><path d="M 82.15384107792192 88.93136811851018 l -4.862288399228232 -3.01571226770342 a26.721570497585986,26.721570497585986 0 0,0 0.24580333357626916,-0.3888018439194199 l 4.809657469406001 3.0989617593370555" fill="#ff4106" stroke="none" /><path d="M 82.34701348167596 88.62581576622439 l -8.026662702121055 -5.171744750472262 a30.548521241410036,30.548521241410036 0 0,0 0.28861568567313306,-0.43958149006422137 l 7.936450381090001 5.30914430451415" fill="#ff760a" stroke="none" /><path d="M 82.54541684631803 88.32363383020206 l -2.6967089940828632 -1.8039824492546972 a24.244471000947055,24.244471000947055 0 0,0 0.23502767326650123,-0.3448741096269517 l 2.6652568551476215 1.8501345821520647" fill="#ff1d03" stroke="none" /><path d="M 82.7489923806493 88.02491185347247 l -12.880921830723343 -8.941516793396929 a36.680206305269216,36.680206305269216 0 0,0 0.3645093408999952,-0.5155726125561142 l 12.72509987001947 9.161915906284829" fill="#ffc612" stroke="none" /><path d="M 82.95767976084542 87.72973835380427 l -13.574669720201705 -9.773595783330283 a37.727068857050014,37.727068857050014 0 0,0 0.3839850064297206,-0.5237551172391096 l 13.40442210125835 10.005813344240895" fill="#ffd413" stroke="none" /><path d="M 83.17141714833178 87.43820079747577 l -9.795609850740737 -7.311993237688194 a33.22371537037438,33.22371537037438 0 0,0 0.34603932888795047,-0.45534719454235056 l 9.668294581628677 7.479525208111569" fill="#ff990e" stroke="none" /><path d="M 83.39014120810768 87.1503855733568 l -15.526040862689202 -12.011158021117295 a40.6297188435837,40.6297188435837 0 0,0 0.4326986107610351,-0.5494832944346169 l 15.316988171334195 12.276633709504958" fill="#fff817" stroke="none" /><path d="M 83.6137871275137 86.86637796730984 l -4.69914626646395 -3.766386499451126 a27.02226227400217,27.02226227400217 0 0,0 0.2940298893865098,-0.36044587790239574 l 4.633617885001048 3.846716546961604" fill="#ff4506" stroke="none" /><path d="M 83.84228863543731 86.58626213691792 l -8.834205606009014 -7.333942014057154 a32.48171999984296,32.48171999984296 0 0,0 0.3608400253164939,-0.4271207751718851 l 8.706654967205395 7.484921738858155" fill="#ff900d" stroke="none" /><path d="M 84.07557802195018 86.31012108654704 l -8.081926916845985 -6.947856633760679 a31.65787288780139,31.65787288780139 0 0,0 0.35880149186262483,-0.4101721303083508 l 7.961133561405516 7.085944320271973" fill="#ff850c" stroke="none" /><path d="M 84.31358615837235 86.03803664274999 l -4.683250087438931 -4.168407564266809 a27.269645365037285,27.269645365037285 0 0,0 0.31510251742721385,-0.3479440698909243 l 4.610803929395672 4.248404421427289" fill="#ff4806" stroke="none" /><path d="M 84.5562425177563 85.77008943001954 l -12.267192609971236 -11.303017027126698 a37.68059376777844,37.68059376777844 0 0,0 0.4436130527119583,-0.47321547460750085 l 12.07081223528882 11.51250191861225" fill="#ffd313" stroke="none" /><path d="M 84.80347519578584 85.50635884689758 l -14.154223495248193 -13.499549323543302 a40.55964914542729,40.55964914542729 0 0,0 0.4862053876936911,-0.501077390678508 l 13.919753843851389 13.741190909771934" fill="#fff717" stroke="none" /><path d="M 85.05521093208273 85.24692304244772 l -2.786606187347368 -2.75085953675868 a24.915661149070335,24.915661149070335 0 0,0 0.303928590550186,-0.3026234245941755 l 2.738841796629867 2.798418812002967" fill="#ff2703" stroke="none" /><path d="M 85.31137513191541 84.99185889309783 l -44.06587460425377 -45.02442332070653 a84.0,84.0 0 0,0 1.0420670255502897,-1.0024676529507643 l 43.28432433509105 45.7762740604196" fill="#4dd2ff" stroke="none" /><path d="M 85.57189188830299 84.74124197986013 l -10.031142735108876 -10.6086521167956 a35.60025083028779,35.60025083028779 0 0,0 0.4488888454659921,-0.41719326018695074 l 9.847046005848027 10.779749963057201" fill="#ffb911" stroke="none" /><path d="M 85.83668400450813 84.49514656593479 l -17.43452039496351 -19.085903576759268 a46.850226628479504,46.850226628479504 0 0,0 0.600104580557125,-0.5387798176267491 l 17.103404826810415 19.383182403155296" fill="#bcff1f" stroke="none" /><path d="M 86.10567301691215 84.25364557470407 l -4.174292174620398 -4.730699380856549 a27.309059501315044,27.309059501315044 0 0,0 0.3551558810920662,-0.30798768031887064 l 4.092242494881559 4.801852054595101" fill="#ff4906" stroke="none" /><path d="M 86.37877921826538 84.01681056812374 l -10.11766406742066 -11.872103388451098 a36.59852445096161,36.59852445096161 0 0,0 0.4830002480953202,-0.40449881743630706 l 9.91180628236623 12.044503363281217" fill="#ffc512" stroke="none" /><path d="M 86.65592168130627 83.78471172551755 l -3.448816593608966 -4.190889317012222 a26.42751224446336,26.42751224446336 0 0,0 0.3537468512530334,-0.28603868560209017 l 3.3761663437914318 4.249634099878448" fill="#ff3d05" stroke="none" /><path d="M 86.93701828274178 83.55741782278169 l -6.838448268981785 -8.607663247268905 a31.99346357186505,31.99346357186505 0 0,0 0.4341474078892561,-0.33885893818964175 l 6.689268305933104 8.724100574681767" fill="#ff890c" stroke="none" /><path d="M 87.22198572758235 83.33499621200491 l -3.2594156283500793 -4.250908837248249 a26.35667958542678,26.35667958542678 0 0,0 0.3624091716404622,-0.2729590745495258 l 3.185760302951227 4.306384501303629" fill="#ff3c05" stroke="none" /><path d="M 87.51073957382395 83.11751280151077 l -3.1905865595860337 -4.3129084437208265 a26.36479466877619,26.36479466877619 0 0,0 0.36716703258354494,-0.26676246405347626 l 3.115874210648707 4.367190142590971" fill="#ff3c05" stroke="none" /><path d="M 87.80319425747018 82.90503203632743 l -6.056623670321578 -8.488926510581027 a31.428066147946367,31.428066147946367 0 0,0 0.4430891299767536,-0.31041225150959567 l 5.909603400761164 8.591923604854564" fill="#ff810b" stroke="none" /><path d="M 88.09926311788651 82.69761687909137 l -4.43225215080502 -6.444014817011936 a28.821137135364978,28.821137135364978 0 0,0 0.41117511369622395,-0.2776272722138524 l 4.320672342702256 6.519354001524453" fill="#ff5e08" stroke="none" /><path d="M 88.39885842347998 82.49532879139004 l -1.8887998670158772 -2.849962689697383 a24.419042595567703,24.419042595567703 0 0,0 0.3523702431064315,-0.22919140793240642 l 1.8394625981251587 2.882053021789324" fill="#ff2003" stroke="none" /><path d="M 88.70189139769569 82.29822771554957 l -1.8397247934511618 -2.8824638270062266 a24.419529942790135,24.419529942790135 0 0,0 0.3562702991687358,-0.2230964286551633 l 1.7898353419101838 2.91370459698432" fill="#ff2003" stroke="none" /><path d="M 89.00827224532344 82.1063720568725 l -17.50945439412961 -28.50395037144309 a54.45229708043672,54.45229708043672 0 0,0 0.8028807979852042,-0.4837266972915238 l 17.01621152992676 28.801123678193232" fill="#69ff28" stroke="none" /><line stroke="#e1ed5e" stroke-width="0.3" x1="56.76296977257108" x2="54.21961505331056" y1="26.818313649435495" y2="22.513508569990535" /><path d="M 56.25429882871898 25.957352633546506 a86.0,86.0 0 0,1 42.26535254187918,-11.944610805530505" fill="none" id="id36" stroke="none" /><text fill="#e1ed5e" style="font-size:6.75px; font-family:Arial;" text-anchor="middle"><textPath startOffset="22.20632615414155" xlink:href="#id36">December</textPath></text><path d="M 89.3179101791058 81.91981866633112 l -2.7264704746054225 -4.61474125459411 a26.359988628322633,26.359988628322633 0 0,0 0.3926424083388696,-0.22744382622369969 l 2.6466313338012304 4.660989238207857" fill="#ff3c05" stroke="none" /><path d="M 89.94658935756843 81.56283822128135 l -6.01080096890561 -11.023334649800745 a33.55562165284118,33.55562165284118 0 0,0 0.5094941038490698,-0.2721541053779705 l 5.820161818528235 11.125167481680466" fill="#ff9e0e" stroke="none" /><path d="M 90.26544431104013 81.39251694778311 l -5.460341913477285 -10.437376174196432 a32.77939536707042,32.77939536707042 0 0,0 0.5022107944064941,-0.25725187486808776 l 5.2798706314820265 10.529820574377025" fill="#ff940d" stroke="none" /><path d="M 90.58718382345135 81.22770947309562 l -13.020291806157505 -25.966798452860274 a50.04828085462131,50.04828085462131 0 0,0 0.7734335797169813,-0.3795204985819639 l 12.571386959430098 26.18707411157707" fill="#99ff23" stroke="none" /><path d="M 90.91171255644093 81.06846463323043 l -5.723029067943494 -11.92146791985633 a34.224010703137296,34.224010703137296 0 0,0 0.5332781904181871,-0.25038126088119356 l 5.516972666225699 12.01821416337753" fill="#ffa70f" stroke="none" /><path d="M 91.23893434514133 80.91482961587045 l -11.03539871214862 -24.03959437986402 a47.451505111892615,47.451505111892615 0 0,0 0.7452549948365451,-0.3343741925214813 l 10.6199615988453 24.225988902902028" fill="#b6ff1f" stroke="none" /><path d="M 91.56875222667455 80.76684994638697 l -5.825145159802651 -13.288174414351587 a35.508890219413765,35.508890219413765 0 0,0 0.5619133791786695,-0.24058198390170457 l 5.595548022833674 13.386475926216077" fill="#ffb711" stroke="none" /><path d="M 91.90106846888425 80.62456947434976 l -6.63446212164075 -15.871915871747001 a38.20272655956899,38.20272655956899 0 0,0 0.6089080383424825,-0.2483888776102227 l 6.360270213709887 15.9837656355408" fill="#ffda14" stroke="none" /><path d="M 92.23578459929587 80.48803036053334 l -1.9417025199504792 -4.879622558476899 a26.251754467716353,26.251754467716353 0 0,0 0.4212992001864448,-0.16345754439655835 l 1.857420154764357 4.912322806764008" fill="#ff3a05" stroke="none" /><path d="M 92.57280143429618 80.3572730644239 l -3.733099129606123 -9.872934751589101 a31.555134756155496,31.555134756155496 0 0,0 0.5097171153293458,-0.1877331152554861 l 3.562599688504209 9.93573113465091" fill="#ff830c" stroke="none" /><path d="M 92.91201910852362 80.23233633223022 l -8.945457021170618 -24.947977210496937 a47.503259577136646,47.503259577136646 0 0,0 0.7720817790157062,-0.2693641724754517 l 8.514693238091628 25.0982622361446" fill="#b5ff20" stroke="none" /><path d="M 93.25333710446033 80.11325718540243 l -3.5314386047759587 -10.40941460779821 a31.99213223611983,31.99213223611983 0 0,0 0.5230213595120142,-0.17243191908631006 l 3.351734423021535 10.468660251143755" fill="#ff890c" stroke="none" /><path d="M 93.59665428221793 80.00007090966166 l -6.560070844996476 -20.489437476908467 a42.51398562822598,42.51398562822598 0 0,0 0.6988785572966413,-0.21714496971856093 l 6.206406914989106 20.599322581509554" fill="#efff19" stroke="none" /><path d="M 93.94186890950719 79.89281104454417 l -9.447639188231076 -31.357107250262303 a53.74944367978565,53.74944367978565 0 0,0 0.8881706070861737,-0.25928135545012226 l 8.90647836342148 31.51508693463112" fill="#71ff27" stroke="none" /><path d="M 94.28887869178378 79.79150937346287 l -2.248376451430468 -7.955757195752977 a29.26736168466835,29.26736168466835 0 0,0 0.48598051410936205,-0.13283683252636508 l 2.1110980480973836 7.993280569105638" fill="#ff6409" stroke="none" /><path d="M 94.63758080256005 79.69619591428918 l -0.53547979306646 -2.027494757490959 a23.09701540300395,23.09701540300395 0 0,0 0.3852704377894257,-0.09821401299666047 l 0.5005004665920348 2.036411766656483" fill="#ff0d01" stroke="none" /><path d="M 94.98787191387505 79.60689891045804 l -2.128402551329738 -8.65993997812296 a29.917659886158432,29.917659886158432 0 0,0 0.5011582899743671,-0.11860797546198924 l 1.9790205743928369 8.69529386572582" fill="#ff6d0a" stroke="none" /><path d="M 95.33964822691252 79.52364482259891 l -4.8745334651195575 -21.417412979919714 a42.965123611193356,42.965123611193356 0 0,0 0.7225450481398229,-0.15792036168698256 l 4.505145692826213 21.498146839702564" fill="#eaff1a" stroke="none" /><path d="M 95.692805502759 79.44645832069477 l -1.1197898402554058 -5.3435356050196505 a26.459606400506537,26.459606400506537 0 0,0 0.44657968098180334,-0.0895796828014348 l 1.0276437498064661 5.362019243898296" fill="#ff3d05" stroke="none" /><path d="M 96.04723909329186 79.375362276772 l -1.0268790580041494 -5.3580292501281335 a26.455543790035613,26.455543790035613 0 0,0 0.4479866878863199,-0.08186670375238021 l 0.9344972490149361 5.37491143523125" fill="#ff3d05" stroke="none" /><path d="M 96.40284397218896 79.31037775812273 l -3.800336811930201 -21.85824924546935 a43.18615829658603,43.18615829658603 0 0,0 0.7334876839740518,-0.12103175262071049 l 3.4235199218172636 21.920427261029687" fill="#e7ff1a" stroke="none" /><path d="M 96.75951476605007 79.25152402106235 l -0.3348826995460241 -2.14421765434894 a23.17021099704082,23.17021099704082 0 0,0 0.39458981821690675,-0.05815228203324887 l 0.29792390090046855 2.149664420543158" fill="#ff0e01" stroke="none" /><path d="M 97.11714578562143 79.19881850522333 l -2.4428643897301408 -17.62644301763874 a38.79491724849197,38.79491724849197 0 0,0 0.6622574496352779,-0.08598002387873202 l 2.139092211587005 17.665881364681606" fill="#ffe115" stroke="none" /><path d="M 97.47563105711357 79.15227682838746 l -1.0796135216920926 -8.916083322919842 a29.981208558844948,29.981208558844948 0 0,0 0.5128689706360251,-0.05762680463223373 l 0.9259778475463495 8.933346081022675" fill="#ff6e0a" stroke="none" /><path d="M 97.83486435360386 79.11191278185805 l -0.5892816669146828 -5.685078842544654 a26.71553797370909,26.71553797370909 0 0,0 0.45782146823831066,-0.04347566491597738 l 0.4913350715861358 5.694380051975812" fill="#ff4106" stroke="none" /><path d="M 98.19473922651362 79.07773832637324 l -1.552594820222675 -17.993962744275724 a39.060820743204474,39.060820743204474 0 0,0 0.6703763336861969,-0.0520341056664106 l 1.242628297174144 18.018022112130595" fill="#ffe415" stroke="none" /><path d="M 98.55514903715128 79.0497635885617 l -0.8402241754658264 -12.18319090843006 a33.21212992791553,33.21212992791553 0 0,0 0.5706760436600609,-0.03442473740224765 l 0.6303860829661425 12.195848915212613" fill="#ff990e" stroke="none" /><path d="M 98.91598698831166 79.02799685794201 l -0.8064580792712728 -15.602249410339937 a36.623077843244424,36.623077843244424 0 0,0 0.629845729009864,-0.027122482006853618 l 0.5377715178720847 15.613819618870982" fill="#ffc612" stroke="none" /><path d="M 99.27714615592234 79.0124445844662 l -0.11844874043452568 -3.4390762726617 a24.441115475146862,24.441115475146862 0 0,0 0.42058895899258736,-0.010862571952482669 l 0.05923314624705929 3.4406056367565423" fill="#ff2003" stroke="none" /><path d="M 99.63851952072746 79.00311137660856 l -0.7569477564289457 -43.967928136671375 a64.9744434249879,64.9744434249879 0 0,0 1.1184282357014705,-0.009626664925078045 l 1.077063227693956e-14 43.974443424987896" fill="#35ff68" stroke="none" /></svg>